<?xml version="1.0" encoding="utf-8"?>
<!-- Generator: Adobe Illustrator 22.0.1, SVG Export Plug-In . SVG Version: 6.00 Build 0)  -->
<svg version="1.1" id="Capa_1" xmlns="http://www.w3.org/2000/svg" xmlns:xlink="http://www.w3.org/1999/xlink" x="0px" y="0px"
	 viewBox="0 0 456.1 309.6" style="enable-background:new 0 0 456.1 309.6;" xml:space="preserve">
<style type="text/css">
	.st0{display:none;}
</style>
<g id="Capa_1_1_" class="st0">
	
		<image style="display:inline;overflow:visible;enable-background:new    ;" width="512" height="512" id="XMLID_1_" xlink:href="36694829.png"  transform="matrix(1 0 0 1 110.1622 21.1081)">
	</image>
</g>
<g id="Capa_2_1_">
	<path id="XMLID_4_" d="M432.1,49.5H25.4C14,49.5,4.8,40.3,4.8,28.9v-6.8C4.8,10.7,14,1.5,25.4,1.5h406.8c11.4,0,20.6,9.2,20.6,20.6
		v6.8C452.7,40.3,443.5,49.5,432.1,49.5z"/>
	<path id="XMLID_6_" d="M432.1,179.1H25.4c-11.4,0-20.6-9.2-20.6-20.6v-6.8c0-11.4,9.2-20.6,20.6-20.6h406.8
		c11.4,0,20.6,9.2,20.6,20.6v6.8C452.7,169.9,443.5,179.1,432.1,179.1z"/>
	<path id="XMLID_7_" d="M432.1,308.7H25.4c-11.4,0-20.6-9.2-20.6-20.6v-6.8c0-11.4,9.2-20.6,20.6-20.6h406.8
		c11.4,0,20.6,9.2,20.6,20.6v6.8C452.7,299.5,443.5,308.7,432.1,308.7z"/>
</g>
</svg>
